<svg xmlns="http://www.w3.org/2000/svg" viewBox="0 0 16 16">
  <defs>
    <style>.canvas{fill: none; opacity: 0;}.light-defaultgrey-10{fill: #212121; opacity: 0.1;}.light-defaultgrey{fill: #212121; opacity: 1;}.light-lightblue-10{fill: #0077a0; opacity: 0.1;}.light-lightblue{fill: #0077a0; opacity: 1;}.light-blue{fill: #005dba; opacity: 1;}.cls-1{opacity:0.75;}</style>
  </defs>
  <title>IconLightDeployDatabase</title>
  <g id="canvas">
    <path class="canvas" d="M16,16H0V0H16Z" />
  </g>
  <g id="level-1">
    <path class="light-defaultgrey-10" d="M6,6.5v9H0v-9a1,1,0,0,1,1-1H5A1,1,0,0,1,6,6.5Z" />
    <path class="light-defaultgrey" d="M6.5,16H.5L0,15.5v-9A1.5,1.5,0,0,1,1.5,5h4A1.5,1.5,0,0,1,7,6.5v9ZM1,15H6V6.5A.5.5,0,0,0,5.5,6h-4a.5.5,0,0,0-.5.5Z" />
    <g class="cls-1">
      <path class="light-defaultgrey" d="M5,7V8H2V7ZM2,12H5V11H2Zm0,2H5V13H2Z" />
    </g>
    <path class="light-lightblue-10" d="M12,.5C10.314.5,8.5,1,8.5,2.086V5.914C8.5,7,10.314,7.5,12,7.5s3.5-.5,3.5-1.586V2.086C15.5,1,13.686.5,12,.5Z" />
    <path class="light-lightblue" d="M12,0C10.073,0,8,.567,8,1.813V6.188C8,7.433,10.073,8,12,8s4-.567,4-1.812V1.813C16,.567,13.927,0,12,0Zm0,1c1.969,0,3,.6,3,.813s-1.031.812-3,.812-3-.6-3-.812S10.031,1,12,1Zm0,6c-1.969,0-3-.6-3-.812V3.051a7.2,7.2,0,0,0,3,.574,7.2,7.2,0,0,0,3-.574V6.188C15,6.4,13.969,7,12,7Z" />
    <path class="light-blue" d="M11,12.854V10.561L9.732,11.828l-.707-.707L11.146,9h.708l2.121,2.121-.707.707L12,10.561v2.793l-.5.5H9v-1Z" />
  </g>
</svg>
